PathFileType	4	(X/Y/Z)	61_2_80_p0_0-570_filt_butterworth.trc
DataRate	CameraRate	NumFrames	NumMarkers	Units	OrigDataRate	OrigDataStartFrame	OrigNumFrames
59.0	59.0	7	27	m	59.0	71	570
Frame#	Time	RHip			RKnee			RAnkle			RBigToe			RSmallToe			RHeel			LHip			LKnee			LAnkle			LBigToe			LSmallToe			LHeel			Neck			Head			Nose			RShoulder			RElbow			RWrist			RThumb			RIndex			RPinky			LShoulder			LElbow			LWrist			LThumb			LIndex			LPinky			
		X1	Y1	Z1	X2	Y2	Z2	X3	Y3	Z3	X4	Y4	Z4	X5	Y5	Z5	X6	Y6	Z6	X7	Y7	Z7	X8	Y8	Z8	X9	Y9	Z9	X10	Y10	Z10	X11	Y11	Z11	X12	Y12	Z12	X13	Y13	Z13	X14	Y14	Z14	X15	Y15	Z15	X16	Y16	Z16	X17	Y17	Z17	X18	Y18	Z18	X19	Y19	Z19	X20	Y20	Z20	X21	Y21	Z21	X22	Y22	Z22	X23	Y23	Z23	X24	Y24	Z24	X25	Y25	Z25	X26	Y26	Z26	X27	Y27	Z27	
71	1.2033898305084745	0.34554708467348555	0.6369291319413045	0.985808895120223	0.3409262691107562	0.7947213831409677	1.4032810035434429	0.3378749952376635	0.8743332613869953	1.7677425043076518	0.3144644062731685	0.7711025171389609	1.8325415331953727	0.3927587406197792	0.7806135711188242	1.8218220412446946	0.2960331178570291	0.9424118621758097	1.8163260134023522	0.12946654992816256	0.612093133161073	0.9908331284034246	0.0975367746725529	0.7459939382479936	1.4103390144570764	0.07434365352332706	0.831084794281271	1.7878404218538417	0.13756978605730472	0.7657743561664472	1.8538880192862586	0.069633440302383	0.7540546031887295	1.8433061090400884	0.05796415392955413	0.9353782603854337	1.8372861100930165	0.2429264578638312	0.4926539682031201	0.4380847534944945	0.24383736974017048	0.42532719808313135	0.20508050053858115	0.24287903477112593	0.38827249809259184	0.34110342514767195	0.4023325857129063	0.5604709274048596	0.5116268894509298	0.44172721894759137	0.5200696879931954	0.7654617594621373	0.31251241944331	0.4691391198739294	0.938722661081417	0.24397243729598078	0.4976179919118304	1.0374947733696032	0.23013694415046093	0.49962290723452507	1.046642332904044	0.2238006662402825	0.48243089458570865	1.0445847634926164	0.08221731487412734	0.5510493896486475	0.5092931648652305	0.06569807435870545	0.5235166076199159	0.7813653401494446	0.19873250871976983	0.4579131806087956	0.954276939773477	0.29630208973620753	0.44242425726617124	0.9921855069477719	0.2973511701949095	0.47681459730608733	1.0368102628015827	0.2325280028089282	0.5015502019760018	1.0588515313852827
72	1.2203389830508475	0.3453226824761653	0.6359968357870354	0.9841993248637363	0.3412772415129698	0.7956426850762847	1.4042629418282913	0.33788812199939783	0.8738041194106873	1.7677627889224126	0.3142329027064524	0.7669134813443688	1.8328639043255275	0.3927958193156258	0.7806221714826866	1.8218664953807027	0.29532850685184336	0.9419774585479288	1.8162858542172007	0.1294416953954175	0.610778813898777	0.9891026809042105	0.09749407025577972	0.744251078250965	1.408916097311832	0.07430009756820892	0.8298642134806947	1.7874209310661673	0.13581446580839274	0.7538041842660489	1.849043468747536	0.06873338217158291	0.7531947764586292	1.8428706494691254	0.05795463986200391	0.9356354778522178	1.8373097134377194	0.242933055486034	0.4926176415426979	0.43810350724911346	0.24385720249203952	0.4255346598248824	0.20473656127099069	0.2428265899455906	0.3883382880736923	0.34109324300542243	0.40232538207749846	0.5604984331946015	0.5116055973191983	0.44174870306931047	0.5207408585856659	0.7653598563814445	0.3125845698103308	0.46906807791207306	0.9387721383040971	0.24383500773463496	0.4979032114945558	1.0374648310934105	0.23143371284637249	0.49984533479672666	1.046635392451137	0.22377570469035285	0.48261787004166246	1.0442624033822787	0.08218630179499498	0.550988666669059	0.5092483953974551	0.06573276318297942	0.5236472838532661	0.7813879319441881	0.1987318306494253	0.4578641945501378	0.9542499295505613	0.2961984550077494	0.4400123991547207	0.9902474261947395	0.2971749281348536	0.4765124504607482	1.0361762627511006	0.23253137702534504	0.501608100884886	1.058797477355161
73	1.2372881355932204	0.34516294427520167	0.6352768511323328	0.9829819803985355	0.34207574583557987	0.7989406044699625	1.4048556507847891	0.33797697391517634	0.8733760266395899	1.7678242131950315	0.31426532598661766	0.7625042719330686	1.8334516549681887	0.3928090098548633	0.7806261896799079	1.8218848624897077	0.2951506907112864	0.9420459452389991	1.816288909682693	0.12930505975686057	0.6099977552548217	0.9877690565829835	0.09748597461765282	0.7429443000318825	1.4068157848357128	0.07422710378544645	0.8285481949484375	1.7868345387226272	0.13457663308716397	0.7445226997400106	1.8443751871935268	0.06830059724821647	0.7523643906739509	1.8425435867393456	0.05786657192711043	0.9352971527070271	1.8371387899790845	0.24297718924227	0.4925867341731665	0.43810900117252355	0.24390789236018437	0.42541441381948	0.20437721706053227	0.2428031363647261	0.3883307273980514	0.34105010587120516	0.4023366156147412	0.5604615026736559	0.511589125383562	0.4417437975084296	0.5209287905194974	0.7650774342168554	0.31275752002660184	0.4690929334624188	0.9391789201314261	0.24386583019282398	0.49768387667972225	1.0373458360002457	0.23185073243769427	0.4996885354208572	1.0466034685556103	0.22379527052412312	0.48274109117358205	1.0437332575965859	0.08214779775852217	0.550936523831984	0.5092066923610911	0.06576352637345173	0.5237032602372522	0.7814064264319797	0.1987304060132076	0.4578080689422928	0.9542314974951986	0.2958498652707735	0.4376147431917019	0.9893844002995668	0.2968449961820469	0.47495339781445467	1.0347707566597244	0.23255025423262904	0.5018422181188622	1.0587803355959373
74	1.2542372881355932	0.34510350598480555	0.6350038259023958	0.9825193696185964	0.3431203187923845	0.8038876795391278	1.4053327166492378	0.3381219549816333	0.8733239228754799	1.7679261158146673	0.3146526201392682	0.7611011701456987	1.8337049970263108	0.39281756746498014	0.7805980977364642	1.8218738992105057	0.2952138796916378	0.9423567406226396	1.8162784269873913	0.12861803932781712	0.611053145051891	0.9873613992905126	0.09748679476097115	0.7424928113081715	1.4053603500496092	0.07416781603921085	0.8277030166228414	1.7864429876641823	0.13492146190186693	0.7393644535636426	1.8413292942608528	0.06818351694734576	0.7515600079565191	1.8423258754556457	0.05779242795840465	0.9350290735799877	1.8370188061017114	0.24305956158135245	0.4925872510497128	0.43809688344638925	0.24394796362064794	0.42416665904970813	0.20460060570560312	0.24285530235733838	0.38815979549315877	0.34101676975946943	0.40239630417229955	0.5602646837463271	0.5115846506954705	0.44165045597090663	0.5205363212877876	0.7644995916900599	0.31285237660060217	0.46968021821451894	0.9399994615546727	0.24401761903470964	0.497330751111032	1.0372047344452997	0.23166862201911276	0.4996414983842987	1.046578670431124	0.22386499336338234	0.48279553663279745	1.043476681852903	0.08211300122022824	0.5509201007758464	0.509183603988423	0.06577855068257304	0.523719140053331	0.7814221061893067	0.19872695633331774	0.45778038487188455	0.9542310427615974	0.29494798405919564	0.43797042082660514	0.9894931571767944	0.2964436235098063	0.47230598722095696	1.0332186820064575	0.23257132792426088	0.5021134653674669	1.0588155423250458
75	1.271186440677966	0.34509316310689125	0.635028578757753	0.9825401504419212	0.34393307062642176	0.8079908970809988	1.406192016487579	0.3382091954033234	0.8735081199419406	1.76791775607456	0.31504992278147337	0.7635589044972869	1.8329809727362583	0.39282337121415417	0.7805511129646101	1.8218497269358704	0.2953159140988804	0.9425741358531576	1.8162626714321313	0.1270062146175382	0.6146905826737146	0.9878775063941064	0.09746433554958538	0.742608503525126	1.4053570667083277	0.07413734139371272	0.8274528751714918	1.7863245320566197	0.13692437169953448	0.7361360507643049	1.8395290635615096	0.06805642496592217	0.7508536159369823	1.8421956889424755	0.05775285759892767	0.9349867090514711	1.8369976190130046	0.24305860285270775	0.4926248753248236	0.43808039467261634	0.2438089849520489	0.42123585952089126	0.20561004212137796	0.24297150931955863	0.387902213787729	0.34110332431653434	0.4024988166882584	0.5599324501582331	0.5115901481921179	0.44143883750124435	0.5196541383762157	0.7635086134541016	0.312403480986849	0.4714538901838725	0.940719604349522	0.24425398819881267	0.49698441101846	1.0370916102477434	0.2316234800109015	0.5008502602752128	1.0466696184681543	0.2239883925653659	0.48274293079419955	1.0438226700682192	0.08209563577988424	0.5509308049225183	0.5091800580176414	0.06577991477728622	0.5237113057433485	0.7814302598575744	0.19871783753496233	0.45780250615432805	0.9542350128178159	0.29399782884634673	0.44128291364535727	0.9900746534965092	0.29625558482000247	0.4706205222878431	1.0326263415493864	0.2325549037270695	0.5022746122400923	1.0588489493738236
76	1.2881355932203389	0.34507948591115156	0.6351369256145575	0.9826799791796131	0.3442462863829475	0.8099797679054477	1.407337829820161	0.33819043820040573	0.8736824360141456	1.7674110775092757	0.31510539404366367	0.7666285569545885	1.8315936862694182	0.3928278787770806	0.780533922758836	1.8218287206272423	0.295383299875637	0.9425103827367316	1.8162540679614936	0.12493224325204573	0.6198387087766388	0.9891621495422349	0.09740371353038259	0.7430079557591326	1.407059553418104	0.07412981769387557	0.8275323267651041	1.7863712478794889	0.1395740302592662	0.7334974760220564	1.838326922627644	0.06794319171484779	0.7507180791502746	1.8422153710442384	0.057732250014216335	0.9351218296244609	1.837028654174786	0.24267120147284488	0.4926806281389282	0.43807069699466306	0.2432375262573445	0.41743033508442173	0.20676077344692081	0.2429787631428032	0.388068344884361	0.341420464079179	0.4024968748338351	0.5599342496220433	0.5115915506870796	0.4412415281963824	0.5189138938387031	0.7623265346926329	0.31108465925055856	0.474654322422987	0.940772873527737	0.24448377883168282	0.49686567790992464	1.0370907855659652	0.23206576418012198	0.5041179453011868	1.0469814588136996	0.22415008567695177	0.4824742273810275	1.0443998740882743	0.08209796743735542	0.5509467334216573	0.5091880782993362	0.06577610331479895	0.5236696807194304	0.7814275961987311	0.19870913562183717	0.45785458144761004	0.9542279800494913	0.2934948417745468	0.44477378166123205	0.9906094806369479	0.29644052983328273	0.4715062230642775	1.0331976403715553	0.23245697691301007	0.5022618170708446	1.0588411288141466
77	1.305084745762712	0.3450523575796005	0.6352267737112407	0.9827871765300015	0.34414914330426577	0.8101546151155928	1.408225602116294	0.3381785966359287	0.8736717260375744	1.7661105432500297	0.3147174164732054	0.766394291627203	1.8304181433703246	0.3928327580929393	0.7805747875951482	1.8218177610116881	0.2953836263812848	0.9422187506821178	1.8162414053934968	0.1234484010876594	0.6241423819165829	0.9909530055821667	0.09735100000728615	0.7436526869107267	1.4100241610510542	0.07413349699917086	0.827671204867827	1.7864580385420004	0.14156107912250443	0.7318476603221624	1.8376472962927677	0.06807032316544137	0.7514330356369721	1.8424215501028054	0.05771380651908972	0.9353149623762482	1.8370580494701148	0.241663700882492	0.49267998639122	0.4380774965032984	0.24208963039248424	0.41442215966375323	0.20735812824584443	0.24248234924049894	0.3896037511011454	0.34181770129036554	0.40203156416698016	0.5613752766359192	0.5115570637662299	0.4413677584663195	0.5195833776773933	0.7614814937051306	0.3093644677860462	0.4784221884134483	0.9403475414600923	0.24466250593612177	0.4971666865393771	1.0372935074253133	0.23276975696905422	0.5083539997029052	1.047451702515712	0.22429560347300004	0.48194135276165906	1.0446994727627263	0.08210710299440879	0.5509569080811817	0.5091990592910747	0.06577358216128493	0.5236206806941899	0.7814211197045169	0.19872654746649734	0.45785818803605416	0.954203792595127	0.29340282593974504	0.44647263243734925	0.9908527859758128	0.29675792447686844	0.47361426156957626	1.0339016410522484	0.23232358873474762	0.502101971978169	1.0588140140375182
